HIERARCHY
ROOT Hips
{
	OFFSET -3.958830 18.904000 13.208200
	CHANNELS 6 Xposition Yposition Zposition Zrotation Yrotation Xrotation 
	JOINT LHipJoint
	{
		OFFSET 0.000000 0.000000 0.000000
		CHANNELS 3 Zrotation Yrotation Xrotation
		JOINT LeftUpLeg
		{
			OFFSET 1.800000 -1.400000 0.085000
			CHANNELS 3 Zrotation Yrotation Xrotation
			JOINT LeftLeg
			{
				OFFSET 2.215000 -6.000000 0.000000
				CHANNELS 3 Zrotation Yrotation Xrotation
				JOINT LeftFoot
				{
					OFFSET 2.500000 -6.900000 0.000000
					CHANNELS 3 Zrotation Yrotation Xrotation
					JOINT LeftToeBase
					{
						OFFSET 0.200000 -0.500000 1.950000
						CHANNELS 3 Zrotation Yrotation Xrotation
						End Site
						{
							OFFSET 0.000000 0.000000 0.000000
						}
					}
				}
			}
		}
	}
	JOINT RHipJoint
	{
		OFFSET 0.000000 0.000000 0.000000
		CHANNELS 3 Zrotation Yrotation Xrotation
		JOINT RightUpLeg
		{
			OFFSET -1.800000 -1.400000 0.085000
			CHANNELS 3 Zrotation Yrotation Xrotation
			JOINT RightLeg
			{
				OFFSET -2.215000 -6.000000 0.000000
				CHANNELS 3 Zrotation Yrotation Xrotation
				JOINT RightFoot
				{
					OFFSET -2.500000 -6.900000 0.000000
					CHANNELS 3 Zrotation Yrotation Xrotation
					JOINT RightToeBase
					{
						OFFSET -0.200000 -0.500000 1.950000
						CHANNELS 3 Zrotation Yrotation Xrotation
						End Site
						{
							OFFSET 0.000000 0.000000 0.000000
						}
					}
				}
			}
		}
	}
	JOINT LowerBack
	{
		OFFSET 0.000000 0.000000 0.000000
		CHANNELS 3 Zrotation Yrotation Xrotation
		JOINT Spine
		{
			OFFSET -0.087000 1.940000 -0.288900
			CHANNELS 3 Zrotation Yrotation Xrotation
			JOINT Spine1
			{
				OFFSET 0.000000 1.950000 0.060000
				CHANNELS 3 Zrotation Yrotation Xrotation
				JOINT Neck
				{
					OFFSET 0.000000 0.000000 0.000000
					CHANNELS 3 Zrotation Yrotation Xrotation
					JOINT Neck1
					{
						OFFSET 0.000000 1.600000 0.340000
						CHANNELS 3 Zrotation Yrotation Xrotation
						JOINT Head
						{
							OFFSET 0.000000 1.667000 -0.240000
							CHANNELS 3 Zrotation Yrotation Xrotation
							End Site
							{
								OFFSET 0.000000 0.000000 0.000000
							}
						}
					}
				}
				JOINT LeftShoulder
				{
					OFFSET 0.000000 0.000000 0.000000
					CHANNELS 3 Zrotation Yrotation Xrotation
					JOINT LeftArm
					{
						OFFSET 2.700000 1.550000 -0.730000
						CHANNELS 3 Zrotation Yrotation Xrotation
						JOINT LeftForeArm
						{
							OFFSET 5.450000 0.000000 0.000000
							CHANNELS 3 Zrotation Yrotation Xrotation
							JOINT LeftHand
							{
								OFFSET 3.450000 0.000000 0.000000
								CHANNELS 3 Zrotation Yrotation Xrotation
								JOINT LeftHandIndex1
								{
									OFFSET 0.750000 0.000000 0.000000
									CHANNELS 3 Zrotation Yrotation Xrotation
									End Site
									{
										OFFSET 0.000000 0.000000 0.000000
									}
								}
							}
						}
					}
				}
				JOINT RightShoulder
				{
					OFFSET 0.000000 0.000000 0.000000
					CHANNELS 3 Zrotation Yrotation Xrotation
					JOINT RightArm
					{
						OFFSET -2.700000 1.550000 -0.730000
						CHANNELS 3 Zrotation Yrotation Xrotation
						JOINT RightForeArm
						{
							OFFSET -5.450000 0.000000 0.000000
							CHANNELS 3 Zrotation Yrotation Xrotation
							JOINT RightHand
							{
								OFFSET -3.450000 0.000000 0.000000
								CHANNELS 3 Zrotation Yrotation Xrotation
								JOINT RightHandIndex1
								{
									OFFSET -0.750000 0.000000 0.000000
									CHANNELS 3 Zrotation Yrotation Xrotation
									End Site
									{
										OFFSET 0.000000 0.000000 0.000000
									}
								}
							}
						}
					}
				}
			}
		}
	}
}
MOTION
Frames: 10
Frame Time: 0.016667
-3.831260 16.292110 -0.045840 7.115031 -24.061450 -23.775680 -15.541513 9.875887 7.691051 41.885314 2.448386 -30.329532 -79.913311 38.827927 24.822284 2.453278 12.726128 0.533122 0.302560 0.081450 0.214350 18.413949 -9.798304 1.251728 -12.364461 1.765169 -4.282699 10.871918 -10.721290 32.507425 -0.841783 -6.058601 2.318587 -0.116890 0.033710 0.080620 -3.494293 -0.106005 -9.682777 -6.683467 0.910763 46.898297 -8.343911 4.928625 4.616453 2.352140 -8.096268 -17.510863 -19.976379 0.728836 45.011798 8.222740 -8.895550 -14.943630 -8.613339 -27.589719 6.544064 2.424376 0.724698 -13.310824 91.607407 -67.118290 -63.861767 -2.990841 1.229945 0.570610 -0.244100 0.182840 0.158400 5.281051 39.716036 10.216169 -14.030023 6.794650 -17.753168 -49.037635 67.786232 -25.486107 2.232245 -1.217019 -0.030740 0.172540 -0.104170 -0.018930 
-3.886230 16.169520 -0.076530 4.396678 -24.331619 -22.141828 -15.568452 9.803927 7.633822 41.148533 1.999511 -31.402717 -75.871351 37.960425 26.242917 2.364016 12.854255 0.470422 0.303670 0.060670 0.239170 18.421014 -9.456662 1.523599 -10.589367 3.558007 -7.270291 14.236355 -12.959032 37.146916 -1.024361 -6.865882 2.016842 -0.099900 0.031580 0.072160 -3.513110 -0.322597 -9.786821 -3.914684 -0.599221 47.430810 -8.784283 4.461854 5.085571 2.772457 -8.191434 -17.279725 -19.626198 -0.569989 42.957197 7.537530 -9.507460 -16.526840 -9.926028 -28.004299 6.278411 -0.178176 -0.011733 -14.952750 85.164474 -64.507045 -55.699801 -3.089855 1.667490 0.592270 -0.250440 0.168470 0.139070 5.636558 40.079497 10.290811 -12.368479 7.942976 -18.700109 -53.882724 62.621615 -26.610725 2.328912 -1.196676 -0.065650 0.194300 -0.087200 -0.044240 
-3.962790 16.063300 -0.097350 2.572890 -24.396975 -20.830977 -15.587101 9.779824 7.479390 39.299318 1.392952 -32.235371 -71.886260 36.824598 27.328043 2.301635 12.923419 0.418553 0.324310 0.092620 0.226730 18.409004 -9.173584 1.819139 -9.615679 5.154129 -9.829988 17.187378 -15.122845 40.746590 -1.208223 -7.683679 1.742579 -0.061900 0.045070 0.074910 -3.500808 -0.515325 -9.848596 -2.462076 -1.119206 46.536939 -8.808369 4.395762 7.143134 2.839358 -7.814160 -17.452037 -18.204532 -1.580811 41.531787 7.489600 -10.020930 -16.193550 -10.156129 -28.639452 6.480876 -2.639275 -0.349274 -16.221057 81.949277 -61.195028 -51.275213 -3.227132 2.041566 0.559610 -0.226620 0.139830 0.144950 5.685926 40.475728 10.671342 -9.612004 8.225064 -19.943271 -58.521705 58.583319 -28.723090 2.501846 -1.324811 -0.062900 0.188550 -0.083080 -0.040060 
-4.033760 15.975900 -0.119260 1.214005 -24.080209 -19.264142 -15.603225 9.756237 7.355796 36.732840 0.715179 -33.325476 -69.882605 34.333766 26.302229 2.257413 12.797181 0.438765 0.350850 0.145610 0.217850 18.389635 -8.937582 2.070884 -8.884723 6.335900 -11.770723 19.678455 -16.706124 42.567908 -1.355902 -8.227451 1.565852 -0.029940 0.053900 0.090310 -3.469827 -0.722556 -9.897601 -1.276647 -1.456511 45.397192 -8.851128 4.218070 8.836592 3.161153 -7.623330 -17.721713 -17.326327 -2.290736 40.327340 7.065330 -10.390450 -16.234540 -10.468078 -29.074831 6.908219 -5.698411 -0.768180 -17.206945 76.901957 -56.244849 -44.507682 -3.358224 2.428989 0.518860 -0.209160 0.137810 0.162390 5.356344 40.995973 10.787323 -7.416808 8.550639 -21.177577 -60.998091 55.519444 -29.810453 2.671567 -1.470116 -0.036100 0.183510 -0.094650 -0.016130 
-4.095780 15.920830 -0.135830 -0.752709 -23.855221 -18.626346 -15.587750 9.879644 7.154951 34.146563 -0.383832 -33.072499 -66.167019 32.029102 26.498750 2.177554 12.640248 0.461868 0.394300 0.206590 0.252220 18.367247 -8.854775 2.262708 -7.304221 6.770628 -11.393948 21.597946 -17.561250 42.730376 -1.474759 -8.442869 1.517853 0.005040 0.022580 0.061520 -3.434106 -0.948823 -9.888903 0.132386 -2.008704 45.638141 -8.551308 4.058269 10.025930 3.566393 -7.534728 -18.211413 -17.117797 -2.965690 40.545977 7.311790 -10.956810 -17.816350 -11.370564 -29.954673 7.354643 -7.797052 -1.247311 -18.085772 73.561073 -50.727022 -38.971333 -3.433645 2.667979 0.535070 -0.241720 0.164370 0.177980 5.537020 42.101113 10.916017 -6.405801 8.655365 -22.551499 -61.032636 51.996615 -28.800945 2.906328 -1.619929 -0.036580 0.210480 -0.133900 -0.016350 
-4.135940 15.874070 -0.157650 -3.245498 -23.752606 -17.843909 -15.499194 9.897160 6.969951 32.259811 -1.353707 -33.051856 -61.494687 30.908889 28.463629 2.141044 12.566586 0.444298 0.462680 0.286860 0.294400 18.419513 -8.918288 2.463960 -4.893396 7.013783 -10.759269 23.068554 -17.833309 41.977942 -1.575381 -8.427326 1.515607 0.024570 -0.043950 0.071410 -3.638361 -0.730145 -9.871157 2.987645 -3.612564 46.824646 -9.863642 3.793191 9.985354 3.916733 -7.293526 -18.571799 -16.822543 -3.734950 41.097047 9.554580 -11.833760 -20.655870 -12.196746 -30.845028 7.509137 -8.205680 -2.017097 -18.520545 70.113333 -45.957085 -33.869348 -3.422665 2.867317 0.566610 -0.309110 0.228900 0.194960 5.561689 42.765353 10.845782 -5.282606 9.248634 -23.768567 -60.524137 48.807112 -27.432143 3.099808 -1.730899 0.009790 0.183370 -0.186440 -0.004230 
-4.191260 15.832250 -0.185740 -4.433083 -24.054549 -17.593100 -15.464086 10.024261 6.793871 29.916092 -1.930704 -32.499496 -60.147733 29.261804 27.785877 2.096406 12.324997 0.489983 0.462410 0.303050 0.292680 18.413529 -8.949426 2.596925 -2.968433 7.196730 -10.037310 23.547933 -17.534940 41.179908 -1.600727 -8.289418 1.577119 0.010020 -0.074280 0.075850 -3.650009 -0.774265 -9.856655 3.452770 -3.664941 47.728122 -10.013938 3.967676 9.571609 4.129855 -6.727182 -19.250875 -16.201277 -4.157523 42.685899 10.163460 -12.068430 -22.132560 -12.651250 -31.582094 7.636227 -8.175976 -2.454834 -18.581431 66.989327 -41.635620 -29.406119 -3.451159 2.955274 0.591380 -0.334120 0.268890 0.187210 5.619248 43.391242 11.041204 -4.235556 9.844140 -24.371028 -58.631281 45.580119 -25.132581 3.202918 -1.753206 0.031900 0.182230 -0.186410 -0.001410 
-4.257510 15.791510 -0.201720 -5.107969 -24.455105 -17.384670 -15.444788 10.248744 6.560665 27.073398 -2.755085 -32.479851 -56.219462 28.929868 30.021494 2.074011 12.282496 0.485842 0.471570 0.330760 0.312560 18.384511 -9.010019 2.715784 -0.970355 7.167127 -9.259608 23.339775 -16.884936 40.276173 -1.590525 -8.062247 1.663965 0.007990 -0.106440 0.069120 -3.582781 -0.904688 -9.802776 2.944060 -3.080714 48.128236 -9.634537 4.358635 9.173487 4.265834 -5.918150 -19.740183 -14.709245 -4.764018 43.667217 9.880790 -11.864160 -22.862850 -13.482375 -32.247814 7.811018 -8.019604 -2.314678 -18.646866 65.491355 -38.140174 -26.481408 -3.473491 3.009899 0.597770 -0.351640 0.300650 0.183390 6.187005 43.971946 11.084694 -3.678531 10.722236 -24.599849 -56.747644 42.749828 -23.083078 3.277011 -1.758092 0.048710 0.180690 -0.205800 -0.001850 
-4.319620 15.757990 -0.210640 -5.688891 -24.447018 -17.019024 -15.425935 10.408945 6.373310 24.524222 -3.601522 -32.624894 -53.202784 28.724512 32.017831 2.036449 12.286083 0.470937 0.475760 0.326340 0.330950 18.365868 -9.052133 2.823018 0.413608 7.135407 -8.902015 23.495471 -16.544200 39.518120 -1.587173 -7.916389 1.705127 0.004270 -0.131290 0.065960 -3.542695 -0.997977 -9.764825 2.678740 -2.658163 48.248980 -9.265111 4.610477 8.574173 4.211097 -5.341894 -20.019563 -13.732132 -5.396386 44.445382 10.160860 -12.117760 -23.621060 -13.906939 -32.537741 7.929309 -7.788123 -2.744341 -18.113252 63.029292 -34.432555 -23.180315 -3.458277 3.048403 0.627290 -0.374010 0.319370 0.174810 6.710425 44.049309 11.076036 -2.966165 11.699685 -24.497956 -55.516216 39.887138 -21.402906 3.253595 -1.721049 0.043020 0.178040 -0.209930 -0.015130 
-4.364830 15.733290 -0.213720 -6.032265 -24.676726 -16.482979 -15.408946 10.515022 6.167101 22.056490 -4.257948 -32.755696 -50.178987 28.782047 34.198162 2.018066 12.303728 0.465570 0.479990 0.375500 0.295650 18.350940 -9.060004 2.965893 0.648325 7.645183 -9.592178 24.816873 -17.083104 39.851259 -1.636450 -8.086912 1.672287 0.039400 -0.116050 0.029910 -3.529847 -1.011239 -9.732697 2.612427 -2.153005 47.608415 -9.031742 4.995807 8.887896 4.088971 -5.063120 -19.964271 -12.973696 -6.433699 44.138164 11.204660 -12.983270 -24.717630 -14.190411 -32.826904 7.855546 -7.643589 -4.040728 -17.653702 60.961364 -30.515040 -20.366135 -3.447979 3.060669 0.611140 -0.375180 0.315330 0.193440 7.251238 44.377241 10.871642 -2.625783 12.520884 -24.823555 -54.496956 36.747162 -19.887919 3.260487 -1.701277 0.035030 0.221950 -0.216020 0.008790 
